<svg xmlns="http://www.w3.org/2000/svg" xml:space="preserve" id="logo-2" x="0" y="0" style="enable-background:new 0 0 132 35" viewBox="0 0 132 35"><style>.st0{fill:#394149}</style><path d="M30.5 12.3c.4 0 .5.1.5.5v7.9h4.1c.3 0 .5.1.5.5v.7c0 .4-.1.5-.5.5h-5.4c-.3 0-.5-.1-.5-.5v-9.1c0-.3.1-.5.5-.5h.8zM39.1 15.7c0-2.3 1.5-3.7 4-3.7s4 1.4 4 3.7v3.1c0 2.3-1.5 3.7-4 3.7s-4-1.4-4-3.7v-3.1zm6.3 0c0-1.3-.8-2-2.3-2-1.5 0-2.3.7-2.3 2v3.1c0 1.3.8 2 2.3 2 1.5 0 2.3-.7 2.3-2v-3.1zM59 16.8c.4 0 .5.1.5.5v1.9c0 .4-.1.9-.3 1.3-.2.4-.5.8-.8 1.1-.8.7-1.9 1-3 .9-2.6 0-4-1.4-4-3.7v-3.1c0-2.3 1.5-3.7 4-3.7 2 0 3.3.8 3.8 2.4v.4c0 .1-.1.1-.1.2 0-.1-.1 0-.1 0l-.8.3c-.3.1-.5.1-.6-.3-.2-.4-.5-.8-.9-1-.4-.2-.9-.3-1.3-.3-1.5 0-2.3.7-2.3 2v3.2c0 1.3.8 2 2.3 2s2.4-.7 2.4-1.6v-.7h-2.2c-.4 0-.5-.1-.5-.5v-.7c0-.4.1-.5.5-.5H59zM63.6 15.7c0-2.3 1.5-3.7 4-3.7s4 1.4 4 3.7v3.1c0 2.3-1.5 3.7-4 3.7s-4-1.4-4-3.7v-3.1zm6.3 0c0-1.3-.8-2-2.3-2-1.4 0-2.3.7-2.3 2v3.1c0 1.3.8 2 2.3 2s2.3-.7 2.3-2v-3.1zM76.3 12.5c0-.2.1-.3.3-.3h.5c.2 0 .3.1.3.3V22c0 .2 0 .3-.3.3h-.5c-.2 0-.3-.1-.3-.3v-9.5zM86.5 12.3c.8 0 1.6.3 2.2.9.6.6.9 1.4.9 2.2 0 .8-.3 1.6-.9 2.2-.6.6-1.4.9-2.2.9h-3V22c0 .2 0 .3-.3.3h-.5c-.2 0-.3-.1-.3-.3v-9.5c0-.2.1-.3.3-.3h3.8zm-.1 5.2c.3 0 .6-.1.8-.2.3-.1.5-.3.7-.5s.4-.4.5-.7c.1-.3.2-.5.2-.8 0-.3-.1-.6-.2-.8-.1-.3-.3-.5-.5-.7-.2-.2-.4-.4-.7-.5-.3-.1-.5-.2-.8-.2h-3v4.4h3zM97.4 12.1c.8-.1 1.6.1 2.2.5.7.4 1.2 1 1.5 1.7.1.2 0 .3-.2.4l-.4.2c-.2.1-.3.1-.4-.1-.2-.5-.6-1-1.1-1.3-.4-.4-1-.5-1.6-.5-1.7 0-2.6.7-2.6 1.9 0 .4.1.7.3 1 .2.3.6.5.9.5.5.2 1.1.3 1.7.3.7 0 1.4.2 2 .4.5.2.9.5 1.2.9s.4.9.4 1.5c0 1.9-1.4 3-3.9 3-.8.1-1.6-.1-2.3-.5-.7-.4-1.2-1.1-1.5-1.9v-.2s0-.1.1-.1c0 0 .1 0 .1-.1l.4-.2h.2s.1 0 .1.1c0 0 0 .1.1.1.2.6.6 1 1.1 1.4.5.3 1.1.5 1.7.4 1.9 0 2.8-.7 2.8-2 0-.4-.1-.7-.3-1-.2-.3-.5-.5-.9-.6-.5-.2-1.1-.2-1.6-.3l-1.1-.1c-.3-.1-.7-.2-1-.3-.3-.1-.6-.3-.9-.5-.3-.2-.5-.5-.6-.9-.1-.3-.2-.7-.2-1 .2-1.6 1.5-2.7 3.8-2.7zM106.7 18.9c0 .7.4 1.4.9 1.9s1.2.8 1.9.8 1.4-.3 1.9-.8.8-1.1.9-1.9v-6.3c0-.2.1-.3.3-.3h.5c.2 0 .3.1.3.3v6.3c0 2.3-1.3 3.6-3.8 3.6s-3.8-1.4-3.8-3.6v-6.3c0-.2.1-.3.3-.3h.5c.2 0 .3.1.3.3v6.3zM127.1 12.3c.2 0 .3.1.3.3V22c0 .2-.1.3-.3.3h-.4c-.2 0-.3-.1-.3-.3v-5.8c0-.8.1-1.7.2-2.5h-.1c-.3.8-.7 1.5-1.1 2.2l-2.2 3.8c0 .1-.1.1-.1.2-.1 0-.1.1-.2.1h-.3c-.1 0-.1 0-.2-.1-.1 0-.1-.1-.1-.2l-2.2-3.8c-.4-.7-.7-1.4-1-2.2h-.1c.1.8.2 1.7.2 2.5V22c0 .2-.1.3-.3.3h-.4c-.2 0-.3-.1-.3-.3v-9.5c0-.2.1-.3.3-.3h.4c.1 0 .2 0 .2.1.1 0 .1.1.2.2l3.5 6.2 3.5-6.2c.1-.2.2-.2.4-.2h.4zM12.7 20.8V28c0 .3-.1.5-.3.7-.2.2-.5.3-.7.3-.3 0-.5-.1-.7-.3-.2-.2-.3-.5-.3-.7v-7.2c.3.2.6.3 1 .3.3.1.7-.1 1-.3zm8.9-2.1c-.3 0-.5.1-.7.3s-.3.4-.3.7V21c0 .3.1.5.3.7.2.2.5.3.7.3.3 0 .5-.1.7-.3.2-.2.3-.5.3-.7v-1.2c0-.1 0-.3-.1-.4-.1-.1-.1-.3-.2-.4-.1-.1-.2-.2-.4-.2 0-.1-.1-.1-.3-.1zM8.4 23.5c-.4 0-.7-.1-1-.3v7.3c0 .3.1.5.3.7.2.2.5.3.7.3.3 0 .5-.1.7-.3.2-.2.3-.5.3-.7v-7.2c-.3.2-.6.3-1 .2zm10-7c-.1 0-.3 0-.4.1-.1 0-.2.1-.3.2-.1.1-.2.2-.2.3-.1.1-.1.3-.1.4v5.6c0 .3.1.5.3.7.2.2.5.3.7.3.3 0 .5-.1.7-.3.2-.2.3-.5.3-.7v-5.5c0-.1 0-.3-.1-.4s-.1-.3-.2-.4c-.1-.1-.2-.2-.4-.2-.1 0-.2-.1-.3-.1zm-3.3 2.2c-.4 0-.7-.1-1.1-.3v7.3c0 .3.1.5.3.7.2.2.5.3.7.3.3 0 .5-.1.7-.3.2-.2.3-.5.3-.7v-7.3c-.2.2-.6.3-.9.3zm-9 5.5V3.9c0-.2-.1-.5-.3-.7-.2-.1-.4-.2-.6-.2h-.3c-.2 0-.4.1-.6.3s-.3.4-.3.6v20.3c0 .2.1.5.3.7s.4.3.7.3h.2c.2 0 .5-.1.7-.3.1-.2.2-.4.2-.7zm2.4-1.4h-.2c-.2 0-.5-.1-.7-.3-.2-.2-.3-.4-.3-.7V6.3c0-.2.1-.5.3-.7.2-.1.4-.2.7-.2h.2c.2 0 .5.1.7.3.2.2.3.4.3.7v15.5c0 .2-.1.5-.3.7s-.5.2-.7.2zm3.3-2.4h-.2c-.2 0-.5-.1-.7-.3-.2-.2-.3-.4-.3-.7V8.8c0-.1 0-.2.1-.4 0-.1.1-.2.2-.3.1-.1.2-.2.3-.2.1 0 .2-.1.4-.1h.2c.2 0 .5.1.7.3.2.2.3.4.3.7v10.7c0 .2-.1.5-.3.7-.2.1-.5.2-.7.2zm3.3-2.5h-.2c-.2 0-.5-.1-.7-.3-.2-.2-.3-.4-.3-.7v-5.8c0-.1 0-.3.1-.4 0-.1.1-.2.2-.3.1-.1.2-.2.3-.2.1-.1.2-.1.4-.1h.2c.2 0 .5.1.7.3s.3.4.3.7V17c0 .1 0 .2-.1.4 0 .1-.1.2-.2.3-.1.1-.2.2-.3.2h-.4zm3.3-2.1h-.2c-.2 0-.5-.1-.7-.3s-.3-.4-.3-.7v-1.5c0-.2.1-.5.3-.7.2-.2.4-.3.7-.3h.2c.2 0 .5.1.7.3.2.2.3.4.3.7v1.5c0 .2-.1.5-.3.7-.2.2-.4.3-.7.3z" class="st0"/></svg>