<svg xmlns="http://www.w3.org/2000/svg" xml:space="preserve" id="logo-29" x="0" y="0" style="enable-background:new 0 0 154 44" viewBox="0 0 154 44"><style>.st0{fill:#43505c}.st1{fill:#8e98a1}</style><path d="M51.4 28V10.9h-2.8V28h2.8zM53.2 22.3c0 3.5 2.3 6 5.9 6 3.6 0 5.9-2.5 5.9-6s-2.3-6-5.9-6c-3.6 0-5.9 2.5-5.9 6zm2.8 0c0-2 1.2-3.5 3.1-3.5 1.9 0 3.1 1.4 3.1 3.5 0 2-1.2 3.5-3.1 3.5-1.9 0-3.1-1.5-3.1-3.5zM65.9 22.1c0 3.3 2.1 5.7 5.3 5.7 1.7 0 3.1-.7 3.8-1.8v1.9c0 1.9-1.2 3.1-3.1 3.1-1.7 0-2.9-.9-3.1-2.3H66c.4 3 2.6 4.9 5.8 4.9 3.7 0 6-2.4 6-6.2V16.6h-2.5l-.2 1.5c-.7-1.2-2.1-1.9-3.8-1.9-3.2.1-5.4 2.5-5.4 5.9zm2.9-.1c0-1.9 1.2-3.3 3-3.3 1.9 0 3.2 1.4 3.2 3.3s-1.3 3.3-3.2 3.3c-1.8 0-3-1.4-3-3.3zM79.2 22.3c0 3.5 2.3 6 5.9 6 3.6 0 5.9-2.5 5.9-6s-2.3-6-5.9-6c-3.6 0-5.9 2.5-5.9 6zm2.8 0c0-2 1.2-3.5 3.1-3.5s3.1 1.4 3.1 3.5c0 2-1.2 3.5-3.1 3.5S82 24.3 82 22.3zM94 14.3c.9 0 1.7-.7 1.7-1.7 0-.9-.8-1.7-1.7-1.7-.9 0-1.7.7-1.7 1.7.1 1 .8 1.7 1.7 1.7zM92.6 28h2.8V16.6h-2.8V28zM97.9 33.3h2.7v-6.8c.7 1.2 2.3 1.9 4 1.9 3.4 0 5.4-2.6 5.3-6.1-.1-3.6-2.1-5.9-5.3-5.9-1.7 0-3.3.8-4 2.1l-.2-1.7h-2.5v16.5zm2.9-11c0-2 1.2-3.5 3.2-3.5s3.1 1.4 3.1 3.5-1.2 3.4-3.1 3.4-3.2-1.3-3.2-3.4zM110.6 24.6c.1 2.3 1.8 3.7 4.6 3.7 2.7 0 4.5-1.4 4.5-3.6 0-1.6-1-2.7-2.9-3.2l-2-.5c-.9-.2-1.4-.5-1.4-1.3s.6-1.3 1.6-1.3c1.1 0 1.7.6 1.7 1.6h2.6c-.1-2.3-1.8-3.7-4.2-3.7-2.4 0-4.3 1.4-4.3 3.6 0 1.5.9 2.7 3 3.3l2 .5c.7.2 1.2.6 1.2 1.2 0 .9-.9 1.3-1.9 1.3-1.2 0-2-.6-2-1.6h-2.5zM125.5 28.3c1.5 0 3-.7 3.7-1.8l.2 1.5h2.6V16.6h-2.8v6c0 2-.8 3.2-2.6 3.2-1.4 0-2.4-.7-2.4-3v-6.1h-2.8v7.1c-.1 2.7 1.4 4.5 4.1 4.5zM137.2 28v-6.5c0-1.8 1.1-2.7 2.4-2.7s2.2.9 2.2 2.5V28h2.7v-6.5c0-1.9 1.1-2.7 2.4-2.7 1.4 0 2.2.9 2.2 2.5V28h2.7v-7.4c0-2.6-1.4-4.3-4.2-4.3-1.7 0-3.1.8-3.6 2.2-.6-1.3-1.9-2.2-3.7-2.2-1.3 0-2.5.6-3.2 1.6l-.1-1.3h-2.6V28h2.8z" class="st0"/><path d="M130.5 38.2c.4 0 .8-.4.8-.8s-.4-.8-.8-.8-.8.4-.8.8.4.8.8.8zM132.1 35.3c0 1.7 1 2.8 2.5 2.8 1.3 0 2.3-.8 2.5-1.9h-1c-.2.6-.8 1-1.4 1-1 0-1.6-.7-1.6-1.9s.6-1.9 1.6-1.9c.7 0 1.2.4 1.4 1h1c-.2-1.2-1.1-2-2.4-2-1.5.1-2.6 1.2-2.6 2.9zM137.5 35.3c0 1.6 1.1 2.8 2.8 2.8 1.7 0 2.8-1.2 2.8-2.8s-1.1-2.8-2.8-2.8c-1.7 0-2.8 1.2-2.8 2.8zm1.1 0c0-1.1.7-1.9 1.7-1.9s1.7.8 1.7 1.9-.7 1.9-1.7 1.9-1.7-.8-1.7-1.9zM145 38v-3.2c0-.8.5-1.4 1.3-1.4.7 0 1.2.5 1.2 1.3V38h1v-3.2c0-.9.5-1.4 1.3-1.4.7 0 1.2.5 1.2 1.3V38h1v-3.5c0-1.2-.7-2-2-2-.8 0-1.5.4-1.7 1.1-.3-.7-.9-1.1-1.8-1.1-.7 0-1.3.3-1.6.8l-.1-.7h-.9V38h1.1z" class="st1"/><path d="M2 22.4V17.6l.1-.2.1-.2.1-.2.1-.2.1-.2.5-.1v-.2l.1-.2.1-.2.1-.2.1-.2.1-.2.1-.2.1-.2.1-.2.1-.2.1-.2.1-.2-.2-.1.1-.2.1-.2.1-.2.1-.2.1-.2.1-.2.1-.2.1-.2.1-.2.1-.2H5l.1-.2.1-.2.1-.2.1-.2.1-.2h.2l.1-.2.1-.2.1-.2.1-.2.1-.2h.3l.1-.2.1-.2.1-.2H7l.1-.2.2-.2.1-.2.1-.2.1-.2.1-.1H8l.1-.1.2-.2.2-.1.2-.1.2-.1.2-.1.2-.1.2-.1-.1-.4.2-.1.2-.1.2-.1v-.2l.2-.1.2-.1.2-.1.1-.2.2-.1.2-.1.2-.1.2-.1.2-.1.2-.1.1-.2.2-.1.1-.1.2-.1.2-.1.2-.1.2-.1.2-.1.2-.1.2-.1.2-.1.1-.1.2-.1.2-.1.2-.1.2-.1.2-.1.2-.1.2-.1.2-.1.2-.1.2.1.2-.1.2-.1.2-.1h.3l.2-.1.2-.1.2-.1.2-.1.2-.1.2-.1.2-.1H21.7l1.4-.3.1 5.6H27.6L27 8H28.8l.2.1.2.1.2.1-.4.3.2.1.2.1.2.1.2.1.2.1-.1-.1.2.1.2.1.1.1.1.1.1.1.1.1.3-.1.1.1.1.1.1.1.1.1.1.1.1.1.1.1.1.1.1.1.1.1.1.1.1.1.1.1.1.1.1.1.1.1.1.1.1.1.1.1.1.1.1.1.1.1.1.1.1.1.1.1.1.1.1.1.1.1.1.1.1.1.1.1.1.1.1.1.1.1.1.1.1.1.1.1.1.1.1.1.1.1.1.1.1.1.1.1.1.1.1.1.1.1.1.1.1.1.1.1.1.1.1.1.1.1.1.1.1.1.1.1.1.1.1.1.1.1.1.1.1.1.1.1.1.1.1.2.1.2.1.2.1.2.1.2.1.2.1.2.1.2.1.2.1.2.1.2.1.2.1.2.1.2.1.2.1.2.1.2V30.5l-.1.2-.1.2-.1.2-.1.2.5-1.4v.2l-.1.2-.1.2-.1.2-.1.2-.1.2-.1.2-.1.2-.1.2-.1.2-.1.2-.1.2.3-.3-.1.2-.1.1-.1.2-.1.2-.1.2-.1.1-.1.2-.1.2-.1.2-.1.2-.1.1-.1.1-.1.1-.1.1-.1.1-.1.1-.1.1-.1.1-.2.4-.1.1-.1.2-.1.1-.1.1-.1.1-.1.1-.2.3-.1.1-.1.1-.2.2-.1.1-.1.1-.1.1-.1.1-.2.2-.1.1-.1.1-.2.2-.1.1-.1.1-.1.1-.1.1-.3.2-.1.1-.2.1-.1.1-.1.1-.1.1-.1.1-.2.1-.2.1-.2.1-.2.1-.2.1-.2.1-.2.1-.2.1v.1l-.2.1-.2.1-.2.1-.2.1-.2.1-.2.1-.2.1-.2.1-.2.1-.2.1-.2.1-.2.1-.2.1-.2.1-.2.1v-.1l-.2.1h-.2l-.2.1-.2.1-.2.1-.2.1-.2.1H15.6l-.2-.1.6-.2-.2-.1-.2-.1H15.3l-.2-.1-.2-.1-.2-.1-.2-.1-.2-.1-.2-.1-.1.1-.2-.1-.2-.1-.2-.1-.2-.1-.2-.1h-.1l-.2-.1-.2-.1-.2-.1-.2-.1-.2-.1-.2-.1-.2-.1-.2-.1-.2-.1-.2-.1h.2l-.2-.1-.2-.1-.2-.1-.2-.1-.2-.1-.2-.1.1-.2-.2-.1-.2-.1-.2-.1-.2-.1-.2-.1v-.2l-.1-.1-.1-.1-.1-.1-.3-.2-.1-.1-.1-.1-.2-.2-.1-.1-.1-.1-.1-.1-.2-.3-.1-.1-.1-.1-.1-.1-.1-.1-.1-.1-.1-.1-.4-.4-.1-.2-.1-.2-.1-.2-.1-.2L6 34l-.1-.2-.1-.2-.1-.2-.1-.2-.1-.2-.1-.2-.1-.2-.3.4-.1-.2-.1-.2-.1-.2-.1-.2-.1-.2-.1-.2-.1-.2-.1-.2-.1-.2L4 31v.1l-.1-.2-.1-.2-.1-.2-.1-.2-.1-.2V30l-.1-.2-.1-.2-.1-.2-.1-.2L3 29l-.1-.2.1-.1-.1-.2-.1-.2-.1-.2-.1-.2-.1-.2-.1-.2-.1-.2V23.1L2 23V22.4zM21.4 7.8V3.9H18.2l-.2.6-.2.1-.2.1-.2.1-.2.1-.2-.1-.2.1-.2.1h-.1l-.2.1-.2.1-.2.1-.2.1-.2.1-.2.1-.2.1-.1-.1-.2.1-.2.1-.2.1-.2.1h-.1l-.1.1-.2.1-.2.1-.2.1-.2.1-.2.1-.2.1-.2.1-.2.1V7l-.2.1-.2.1v.1l-.2.1-.2.1-.2.1-.2.1-.2.1V8l-.2.1-.1.1-.1.1-.1.1-.1.1-.1.1-.3.3-.2.1-.1.1-.1.2-.2.1-.1.1-.1.2-.2.1-.1.2-.1.1-.1.1-.1.1-.1.1-.1.1-.1.1-.3.4-.1.1-.1.1-.1.1-.1.2-.1.2-.1.2-.2.1-.1.2-.1.1-.1.2-.1.2-.1.2-.1.1-.1.2-.1.2-.1.2-.1.2-.1.2-.1-.1-.1.2-.1.2-.1.2-.1.2-.1.2-.1.2-.1.2-.1.2-.1.2-.1.2-.1.2.2-.1-.1.1-.1.2-.1.2-.1.2-.1.2.1.1-.1.2-.1.2-.1.2-.1.2V25.6L4 25V27.8l.1.2.1.2.5-.2.1.2.1.2.1.2.1.2H5l.1.2.1.2.1.2.1.2.1.2.1.2h-.1l.1.2.1.2.1.2.1.2.1.2v-.1.2l.1.2.1.2.1.2.1.2.1.2.1-.1.1.2.1.1.1.1.1.2.1.1.1.1.1.2.1.1.1.1.1.1.1.1.1.1.2.4.1.1.1.1.1.1.1.1.1.1.1.1.1.1.1.1.2.4.1.1.1.1.1.1.1.1.1.1.1.1.1.1.1.1.1.1.1.1.1.1.1.1.1.1.1.1.1.1.1.1.1.1.1.1.1.1.1.1.1.1.1.1.1.1.2.1.2.1.2.1.2.1.9.2.2.1.2.1.2.1.2.1.2.1.2.1.2.1.2.1.2.1.2.1.2.1.2.1.2.1.2.1.2.1.2.1.2.1.2.1.2.1.2.1.2.1.2.1H29.4l.2-.1.2-.1.2-.1.2-.1.2-.1.2-.1.2-.1L28 39l.2-.1.2-.1.2-.1.2-.1.2-.1.2-.1.2-.1.2-.1.1-.1.1-.1.1-.1.1-.1.1-.1.1-.1.1-.1.1-.1.1-.1.1-.1.1-.1.1-.1.1-.1.1-.1.1-.1.1-.1.1-.1.1-.1.1-.1.1-.1.1-.1.1-.1.1-.1.1-.1.1-.1.1-.1.1-.1.1-.1.1-.1.1-.1.1-.1.1-.1.1-.1.1-.1.1-.1.1-.1.1-.1.1-.1.1-.1.1-.1.1-.1.1-.1.1-.1.1-.1.1-.1.1-.1.1-.1.1-.1.1-.1.1-.1.1-.1.1-.1.1-.1.1-.1.1-.1.1-.1.1-.1.1-.1.1-.1.1-.1.1-.1.1-.1.1-.1.1-.1.1-.1.1-.1.1-.1.1-.1.1-.1.1-.1.1-.1.1-.1.1-.1.1-.1.1-.1.1-.1.1-.1.1-.1V19.1l-.1-.1h-.1l-.1-.1-.1-.1V18.5l-.1-.1-.1-.1-.1-.1-.1-.1-.1-.1-.1-.1-.1-.1-.1-.1-.1-.1-.1-.1.3-.5-.1-.1-.1-.1-.1-.2-.1-.1-.1-.1-.1-.1-.1-.1V16l-.1-.1-.1-.1-.1-.1-.1-.1-.1-.1-.1-.1v-.3l-.1-.1-.1-.1-.1-.1-.1-.1-.1-.1-.1-.1-.1-.1-.1-.1-.1-.1-.1-.2-.1-.1-.1-.1-.1-.1-.1-.1-.1-.1-.1-.1-.1-.1-.1-.1-.1-.1-.2-.1-.1-.1-.1-.1-.1-.1-.1-.1-.1-.1-.1-.1-.1-.1-.2-.1-.1-.1-.1-.1h-.2l-.1-.1-.1-.1-.1-.1-.1-.1H31l-.1-.1-.1-.1-.1-.1-.1-.1-.1-.1-.1-.1-.1-.1-.3.1h-.1l-.1-.1-.1-.1-.1-.1-.1-.1-.1-.1-.1-.1-.1-.1-.1-.1-.1-.1-.1-.1-.1-.1H25.2v3.8H30.1l.1.1.1.1.1.1.1.1.1.1.1.1.1.1.1.1.1.1.1.1.1.1.1.1.1.1.1.1.1.1.1.1.1.1.1.1.1.1.1.1.1.1.1.1.1.1.1.1.1.1.1.1.1.1.1.1.1.1.1.1.1.1.1.1.1.1.1.1.1.1.1.1.1.1.1.1.1.1.1.1.1.1.1.1.1.1.1.1.1.1.1.1.1.1.1.1.1.1.1.1.1.1.1.1.1.1.1.1.1.1.1.1.1.1.1.1.1.1.1.1.1.1.1.1.1.1V28.6l-.1.1-.1.1-.1.1-3.1.6v.1l-.1.1-.1.1-.1.1v.1l-.1.1-.1.1-.1.1-.1.1-.1.1-.1.1-.1.1-.1.1-.1.1.3.1-.1.1-.1.1-.1.1-.1.1-.1.1-.1.1-.1.1-.1.1-.1.1.1.1-.1.1-.1.1-.1.1v.1l-.1.1-.1.1-.1.1-.1.1-.1.1-.1.1-.1.1-.1.1-.1.1H30l-.1.1-.1.1-.1.1-.1.1-.1.1-.1.1-.1.1-.1.1-.1-.1-.1.1-.1.1-.1.1-.1.1-.1.1-.1.1-.1.1-.1.1-.1.1-.2-.2-.1.1-.1.1-.1.1-.1.1-.2-.1-.1.1-.1.1-.1.1-.1-.1-.1.1-.1.1H18.9l-.1-.1-.1-.1-.1-.1-2.6.1-.1-.1-.1-.1H15.5l-.1-.1-.1-.1-.1-.1H15l-.1-.1-.1-.1-.1-.1-.1-.1-.1-.1-.1-.1-.1-.1-.1-.1-.2.2-.2-.1-.1-.1-.1-.1-.1-.1-.1-.1-.1-.1-.1-.1-.1-.1-.1.1-.1-.1-.1-.1-.1-.1-.2-.1-.1-.1-.1-.1-.1-.1-.1-.1-.1-.1-.1-.1-.1-.1-.1-.1-.1-.1-.1-.1h-.1l-.1-.1-.1-.1-.1-.1-.1-.1v-.2l-.1-.1-.1-.1-.1-.1-.1-.1-.1-.1-.1-.1-.1-.1-.1-.1-.1-.1-.1-.1-.1-.1.1-.2-.1-.1-.1-.1-.1-.1-.1-.1-.1-.1-.1-.1-.1-.1-.1-.1.1-.3-.1-.1-.1-.1-.1-.1-.1-.1.1-.2v-.2l-.1-.1V28l-.1-.1-.1-.1-.1-.1-.1-.1V25.9L8 25V18.4l.1-.1.1-.1.1-.1.1-.1.5-1 .1-.1V16.6l.1-.1.1-.1.1-.1.1-.1.1-.1.1-.1.1-.1.1-.1.1-.1.1-.1.1-.1-.2-.5.1-.1.1-.1.1-.1.1-.1.1-.1.1-.1.1-.1.1-.1.1-.1.1-.1.1-.1.1-.1.1-.1.1-.1.1-.1.1-.1.1-.1.1-.1.1-.1.1-.1.1-.1.1-.1.1-.1.1-.1.1-.1.1-.1.1-.1.1-.1.1-.1.1-.1.1-.1.1-.1.1-.1.1-.1.1-.1.1-.1.1-.1.1-.1.1-.1.1-.1.1-.1.1-.1.1-.1.1-.1.1-.1.1-.1.1-.1.1-.1.1-.1.1-.1.1-.1.1-.1.1-.1.1-.1.7-.2.1-.1.1-.1.1-.1.1-.1h.5l.1-.1.1-.1.1-.1.1-.1.1-.1.1-.1.1-.1.1-.1.2-.1H21.7l-.3-.3zm0 5.6V9.5H19l-1 1-.1.1-.1.1-.1.1-.1.1-.1.1-.1.1-.1.1-.3-.3-.1.1h-.1l-.1.1-.1.1-.1.1-.1.1-.1.1-.3-.1-.1.1-.1.1-.1.1-.1.1-.1.1-.1.1H15.1l-.1.1-.1.1-.1.1-.1.1-.1.1-.1.1-.1.1-.1.1-.1.1H14l-.1.1-.1.1-.1.1-.1.1-.1.1-.1.1-.1.1-.1.1-.1.1-.1.1-.1.1-.1.1-.1.1-.1.1-.1.1-.1.1-.1.1-.1.1-.1.1-.1.1-.1.1.1.2-.1.1-.1.1-.1.1-.1.1-.1.1-.1.1-.1.1.1.1-.1.1-.1.1-.1.1-.1.1-.1.1.1.2-.1.1v.2l-.1.1-.1.1-.1.1-.1.1-.1.1-.1.1V25.6l.1.1.1.1.1.1.1.1.1.1.1.1.1.1.1.1.1.1.1.1.1.1.1.1.1.1.1.1.1.1.1.1.1.1.1.1.1.1.1.1.1.1.1.1.1.1.1.1.1.1.1.1.1.1.1.1.1.1.1.1.1.1.1.1.1.1.1.1-.7 2 .1.1.1.1.1.1.1.1.1.1.1.1.1.1.1.1.1.1.1.1.1.1.1.1.1.1.1.1.1.1.1.1.1.1.1.1.1.1.1.1.1.1.1.1.1.1.1.1.1.1.1.1.1.1.1.1.1.1.1.1.1.1.1.1.1.1.1.1.1.1.1.1H25.8l.1-.1.1-.1.1-.1.1-.1.1-.1.1-.1.1-.1.1-.1.1-.1.1-.1.1-.1.1-.1.1-.1.1-.1.1-.1.1-.1.1-.1.1-.1.1-.1.1-.1.1-.1.1-.1.1-.1.1-.1.1-.1.1-.1.1-.1.1-.1.1-.1.1-.1.1-.1.1-.1.1-.1.1-.1.1-.1.1-.1.1-.1.1-.1.1-.1.1-.1.1-.1.1-.1.1-.1.1-.1.1-.1.1-.1.1-.1.1-.1.1-.1.1-.1.1-.1.1-.1.1-.1.1-.1.1-.1.1-.1.1-.1.1-.1.1-.1V18.3l-.1-.1-.1-.1-.1-.1-.6 1-.1-.1-.1-.1-.1-.1-.1-.1-.1-.1-.1-.1-.1-.1-.1-.1-.1-.1-.1-.1-.1-.1-.1-.1.4.3V18l-.1-.1-.1-.1-.1-.1-.1-.1-.1-.1-.1-.1-.1-.1-.1-.1-.1-.1-.1-.1-.1-.1-.1-.1-.1-.1.3.4V17h-.1l-.1-.1-.1-.1-.1-.1-.1-.1-.1-.1-.1-.1-.1-.1-.1-.1H22.1V20H23.6V32.1H20.9L25 30H13.7l-.1-.1 3-.9h-.1l-.1-.1-.1-.1-.1-.1-.1-.1-.1-.1-.1-.1-.1-.1.2.2-.1-.1-.1-.1-.1-.1-.1-.1-.1-.1-.1-.1-.1-.1.2.2-.1-.1-.1-.1-.1-.1-.1-.1-.1-.1-.1-.1-.1-.1-.1-.1V15.6l.1-.1.1-.1.1-.1.1-.1.1-.1.1-.1.1-.1.1-.1.1-.1.1-.1.1-.1.1-.1.1-.1.1-.1.1-.1.1-.1.1-.1.1-.1.1-.1.1-.1.1-.1.1-.1.1-.1.1-.1.1-.1.1-.1.1-.1.1-.1.1-.1.1-.1.1-.1.1-.1.1-.1.1-.1.1-.1.1-.1.1-.1.1-.1.1-.1.1-.1.1-.1.1-.1.1-.1.1-.1.1-.1.1-.1.1-.1.1-.1H22.8l-1.4 2.6zm1.3 7.3-1.2.3-.1-5.7H16.7L18 17h-.1l-.1.1-.1.1-.1.1-.1.1-.1.1-.1.1-.1.1-.1.1-.1.1-.1.1-.1.1-.1.1-.1.1-.1.1-.1.1-.1.1V32.2H26.9l-4.2-11.5z" style="fill-rule:evenodd;clip-rule:evenodd;fill:#43505c"/></svg>